<svg width="448" height="127" viewBox="0 0 448 127" fill="none" xmlns="http://www.w3.org/2000/svg">
<path d="M447.991 -42L-6.5 85.5V-42H447.991Z" fill="#E4002B"/>
<path d="M96.5815 54.1894C98.2272 53.6791 99.7872 52.9253 101.21 51.9532L101.346 56.0162C99.3585 57.0371 97.2736 57.8566 95.1227 58.4625C87.4402 60.5623 83.0741 57.4966 81.9616 53.402C80.4818 47.9216 84.9003 40.8663 94.4405 38.4516C96.215 37.9945 98.0456 37.793 99.877 37.8531V42.7036L99.2368 42.8716C98.1873 42.0527 96.7809 41.5907 94.4195 42.2207C89.6127 43.512 87.3352 46.9557 88.2903 50.4623C89.1509 53.612 92.5409 55.3233 96.6235 54.2209" fill="white"/>
<path d="M64.7803 46.5465L81.3523 42.1055L81.4362 47.3549L80.8065 47.5124C80.5999 47.1619 80.2745 46.8971 79.8893 46.7661C79.5042 46.6351 79.0849 46.6466 78.7075 46.7985L73.2185 48.2788V52.0374L79.6206 50.3261L79.715 55.0926C79.3119 54.818 78.8479 54.6459 78.3633 54.591C77.8787 54.5361 77.3881 54.6002 76.9338 54.7776L73.1345 55.8275C73.1345 55.8275 73.1345 60.489 73.1345 60.6255C73.1345 62.1689 74.7613 62.1164 74.7613 62.1164V63.4917L66.4805 65.707L66.5855 49.5387C66.6193 49.2999 66.5951 49.0564 66.5149 48.8289C66.4347 48.6014 66.301 48.3966 66.1249 48.2318C65.9488 48.067 65.7356 47.9471 65.5034 47.8822C65.2712 47.8172 65.0267 47.8093 64.7908 47.8589V46.578" fill="white"/>
<path d="M62.2829 63.9218C62.6823 64.2456 63.1472 64.479 63.6454 64.6059C64.1437 64.7328 64.6635 64.7501 65.1691 64.6567V66.0321C56.8778 68.2578 57.1612 69.1817 48.9854 61.5595C48.9854 61.5595 48.9854 66.284 48.9854 67.4494C48.9854 68.6148 50.6122 68.4993 50.6122 68.4993V69.8957L40.9355 72.4889V71.1135C41.4183 70.9455 42.8247 70.7461 42.8037 67.2919C42.8037 66.62 42.8037 67.8274 42.8877 55.8376C42.8877 54.0633 41.5443 54.1578 41.072 54.1578V52.8874L50.3288 50.3992V51.6801C49.9828 51.8236 49.6836 52.0607 49.4649 52.3649C49.2461 52.669 49.1164 53.0281 49.0904 53.4019L49.0379 59.8482C49.0379 59.8482 55.1566 51.9111 55.2301 51.7956C55.7863 50.8927 54.7158 50.5567 54.0441 50.6827V49.4123L63.7312 46.8086V48.0895C62.8897 48.3409 62.1786 48.9093 61.7476 49.6748L55.6289 58.0004C55.6289 58.0004 61.6637 63.4913 62.3039 63.8903" fill="white"/>
<path d="M122.589 62.8297L137.828 58.7456V64.625L132.224 66.1263V79.8484L125.79 81.5807V67.8482L122.589 68.7091V62.8297Z" fill="black"/>
<path d="M154.756 73.8117L138.804 78.0847V58.4833L145.248 56.751V70.4835L154.756 67.9218V73.8117Z" fill="black"/>
<path d="M172.63 69.0136L155.827 73.5176V53.9161L172.63 49.4121V55.008L162.271 57.7902V59.4701L170.395 57.2968V62.3363L162.271 64.5095V66.1894L172.63 63.4176V69.0136Z" fill="black"/>
<path d="M118.946 108.92L172.63 94.5155V74.9141L118.946 89.3185V108.92Z" fill="#AE132A"/>
<path d="M79.1172 69.0345C79.9126 69.048 80.6974 69.2193 81.4262 69.5384C81.9955 69.792 82.48 70.2038 82.8221 70.7248C83.1344 71.2214 83.2983 71.7969 83.2944 72.3836C83.3052 72.932 83.1865 73.4751 82.948 73.9689C82.7393 74.3992 82.4822 74.8043 82.1819 75.1763C81.8475 75.5667 81.4709 75.9189 81.0589 76.2262V76.4992C81.8282 76.5049 82.5885 76.6656 83.2944 76.9716C83.8933 77.2377 84.4217 77.6404 84.8372 78.1475C85.3454 78.8063 85.5988 79.6265 85.5508 80.4573C85.546 81.2956 85.371 82.1243 85.0366 82.893C84.6518 83.7584 84.115 84.5478 83.4518 85.2238C82.7292 85.9944 81.8984 86.6558 80.9854 87.1871C79.9131 87.8072 78.7623 88.2804 77.5639 88.5939L66.502 91.5861V71.9847L75.8847 69.4649C76.9345 69.16 78.0242 69.0149 79.1172 69.0345ZM72.9565 76.9821L75.9057 76.1947C76.1104 76.1566 76.2939 76.0447 76.4216 75.8802C76.5493 75.7157 76.6122 75.5101 76.5984 75.3023C76.5984 74.8299 76.3675 74.6619 75.9057 74.7879L72.9565 75.5753V76.9821ZM78.477 82.6935C78.7106 82.4174 78.8405 82.0683 78.8444 81.7066C78.8542 81.5536 78.8257 81.4005 78.7616 81.2612C78.6974 81.1219 78.5997 81.0008 78.477 80.9087C78.347 80.8228 78.1995 80.7669 78.0452 80.7451C77.8909 80.7233 77.7337 80.7362 77.5849 80.7827L72.9565 82.0216V84.5413L77.5849 83.3025C77.9419 83.2048 78.2559 82.9904 78.477 82.6935Z" fill="black"/>
<path d="M99.8137 82.662L99.1211 79.7643L92.3936 81.5701L91.7009 84.8353L85.2568 86.5571L90.0217 65.6748L101.493 62.5986L106.258 80.8877L99.8137 82.662ZM94.9125 70.2523L93.8 75.3128L97.7147 74.2629L96.5917 69.8009L94.9125 70.2523Z" fill="black"/>
<path d="M104.946 61.6747L122.589 56.9502V62.8296L116.984 64.3309V78.053L110.551 79.7853V66.0632L104.946 67.5541V61.6747Z" fill="black"/>
<path d="M66.502 117.088L122.589 102.064V82.4521L66.502 97.4866V117.088Z" fill="#E4002B"/>
</svg>
