<svg width="31" height="27" viewBox="0 0 31 27" fill="none" xmlns="http://www.w3.org/2000/svg">
<path d="M10.0717 13.0833C10.0717 7.5789 14.534 3.11667 20.0384 3.11667C25.5428 3.11667 30.0051 7.5789 30.0051 13.0833C30.0051 18.5878 25.5428 23.05 20.0384 23.05C14.534 23.05 10.0717 18.5878 10.0717 13.0833Z" fill="#E4002B" stroke="#E4002B" stroke-width="0.6"/>
<path d="M9.07754 21.6275C10.7674 23.3174 12.9205 24.4683 15.2644 24.9345C17.6083 25.4007 20.0379 25.1614 22.2458 24.2469C24.4538 23.3323 26.3409 21.7836 27.6687 19.7965C28.9964 17.8094 29.7051 15.4732 29.7051 13.0833C29.7051 10.6935 28.9964 8.35729 27.6687 6.37019C26.3409 4.3831 24.4538 2.83435 22.2458 1.91979C20.0379 1.00523 17.6083 0.76594 15.2644 1.23218C12.9205 1.69842 10.7674 2.84924 9.07754 4.53913" stroke="black" stroke-width="2"/>
<path d="M1.83887 6.52467L5.48236 12.9008C5.51005 12.9492 5.52389 12.9734 5.52389 13C5.52389 13.0266 5.51005 13.0508 5.48236 13.0992L1.83887 19.4753C1.71504 19.692 1.65313 19.8004 1.70141 19.8541C1.74969 19.9078 1.86402 19.8578 2.09269 19.7578L17.1202 13.1832C17.2998 13.1047 17.3896 13.0654 17.3896 13C17.3896 12.9346 17.2998 12.8953 17.1202 12.8168L2.09269 6.24221C1.86402 6.14217 1.74969 6.09215 1.70141 6.14588C1.65313 6.19961 1.71504 6.30797 1.83887 6.52467Z" stroke="black" stroke-width="2"/>
</svg>
