<svg width="41" height="40" viewBox="0 0 41 40" fill="none" xmlns="http://www.w3.org/2000/svg">
<path d="M40.661 10.3922V29.4118C40.6686 29.466 40.6686 29.521 40.661 29.5752C40.661 30.049 40.5631 30.5229 40.4815 30.9967C40.0944 32.9797 39.1684 34.8173 37.8054 36.3072C36.0462 38.2902 33.6287 39.5674 31.001 39.902L30.1525 40H11.1589H10.9957C10.2103 39.9528 9.43287 39.8157 8.6786 39.5915C7.06801 39.1356 5.58686 38.3072 4.35445 37.1732C2.37524 35.4175 1.09964 33.0022 0.764593 30.3758L0.666687 29.5262V10.5065C0.675882 10.447 0.675882 10.3864 0.666687 10.3268C0.666687 9.93465 0.748275 9.52614 0.813545 9.13398C1.26113 6.63351 2.5582 4.36487 4.48499 2.71242C6.11942 1.2732 8.14989 0.361932 10.3104 0.0980352L11.1262 0H30.1525H30.3157C30.8541 0 31.3926 0.114403 31.9474 0.228782C33.8065 0.624496 35.5287 1.50367 36.9406 2.7778C38.9568 4.53808 40.2526 6.98201 40.5794 9.64051C40.661 9.83659 40.661 10.1634 40.661 10.3922ZM20.6557 31.0131C23.5901 31.0175 26.4067 29.8577 28.4892 27.7876C30.5718 25.7175 31.7507 22.9057 31.7679 19.9673C31.7639 17.0399 30.6097 14.2317 28.5548 12.1495C26.4999 10.0674 23.7094 8.8785 20.7862 8.83988C19.3168 8.82256 17.8585 9.09774 16.4961 9.64939C15.1337 10.201 13.8943 11.0182 12.8499 12.0534C11.8054 13.0886 10.9768 14.3213 10.412 15.6799C9.84717 17.0384 9.55749 18.4958 9.55975 19.9673C9.5727 22.9042 10.748 25.7161 12.8279 27.7866C14.9079 29.8572 17.7228 31.0174 20.6557 31.0131ZM36.2063 6.50329C36.2021 5.9137 35.9674 5.34922 35.5526 4.93078C35.1378 4.51235 34.5758 4.27326 33.9871 4.26473C33.3999 4.26901 32.8379 4.50449 32.4226 4.92031C32.0074 5.33614 31.7722 5.89888 31.7679 6.48693C31.7658 6.78013 31.8216 7.07087 31.9322 7.34237C32.0427 7.61387 32.2058 7.86077 32.4121 8.06886C32.6184 8.27695 32.8638 8.4421 33.1341 8.5548C33.4044 8.66749 33.6943 8.72549 33.9871 8.72549C34.5633 8.72166 35.1158 8.49521 35.5293 8.09334C35.9427 7.69148 36.1853 7.14523 36.2063 6.56861V6.50329Z" fill="#E4002B"/>
<path d="M20.6554 26.5843C18.8995 26.5801 17.2159 25.8831 15.9697 24.6443C14.7235 23.4056 14.015 21.7249 13.9979 19.9666C13.9979 18.1985 14.6993 16.5028 15.9478 15.2526C17.1964 14.0023 18.8897 13.3 20.6554 13.3C22.4211 13.3 24.1145 14.0023 25.363 15.2526C26.6116 16.5028 27.313 18.1985 27.313 19.9666C27.2958 21.7249 26.5873 23.4056 25.3411 24.6443C24.0949 25.8831 22.4114 26.5801 20.6554 26.5843Z" fill="#E4002B"/>
</svg>
