<svg width="41" height="40" viewBox="0 0 41 40" fill="none" xmlns="http://www.w3.org/2000/svg">
<path fill-rule="evenodd" clip-rule="evenodd" d="M21.1652 0C30.2002 0 34.726 3.74658e-06 37.5213 2.81198C40.2586 5.58222 40.2832 10.052 40.332 18.9258L40.3333 19.1681V20.832C40.3333 29.8669 40.3167 34.376 37.5213 37.188C34.726 40 30.2002 40 21.1652 40H19.5014C10.4664 40 5.95725 39.9834 3.14527 37.188C0.333313 34.3927 0.333313 29.867 0.333313 20.8322V20.832V19.1681C0.333313 10.1331 0.349931 5.62396 3.14527 2.81198C5.94061 3.74658e-06 10.4664 0 19.5014 0H21.1652ZM26.2573 6.96063C26.1781 6.54962 26.138 6.13242 26.1375 5.7143H21.0685L21.06 25.4002C20.9755 27.6047 19.1021 29.3735 16.8072 29.3735C16.1182 29.3737 15.4396 29.211 14.8302 28.8995C14.1418 28.5499 13.5652 28.0245 13.1626 27.3804C12.76 26.7362 12.5468 25.9976 12.5459 25.2445C12.5472 24.1498 12.9966 23.1004 13.7955 22.3263C14.5943 21.5522 15.6775 21.1168 16.8072 21.1156C17.2456 21.1156 17.6664 21.1852 18.0646 21.3068V17.4551V16.2921C17.648 16.2349 17.2279 16.2053 16.8072 16.2033C11.6621 16.2033 7.47624 20.2599 7.47624 25.2452C7.47624 28.3033 9.0536 31.0104 11.4598 32.6474C13.0251 33.7151 14.893 34.2874 16.8072 34.2857C21.9523 34.2857 26.1375 30.2298 26.1375 25.2445V15.2622C28.1921 16.694 30.6597 17.4629 33.1905 17.4599L33.1905 13.6423V12.5483C31.8271 12.5495 30.4929 12.1654 29.3514 11.4429L29.35 11.4413C28.5485 10.9361 27.8611 10.2786 27.3295 9.50859C26.7979 8.73854 26.4332 7.87128 26.2573 6.96063ZM9.56416 29.7052C9.98961 30.7862 10.6298 31.7873 11.4598 32.6474C10.6464 31.8009 9.99759 30.8041 9.56416 29.7052ZM8.95422 26.4915C8.95422 26.7586 8.96625 27.0229 8.98981 27.2841C8.96603 27.0215 8.95407 26.7571 8.95422 26.4915Z" fill="#E4002B"/>
</svg>
