<svg width="40" height="40" viewBox="0 0 40 40" fill="none" xmlns="http://www.w3.org/2000/svg">
<path d="M37.188 2.81198C34.3927 3.96703e-06 29.8669 0 20.8319 0H19.168C10.1331 0 5.6073 3.96703e-06 2.81196 2.81198C0.0166177 5.62396 0 10.1331 0 19.1681V20.832C0 29.8669 -2.1422e-05 34.3927 2.81196 37.188C5.62394 39.9834 10.1331 40 19.168 40H20.8319C29.8669 40 34.3927 40 37.188 37.188C39.9834 34.376 40 29.8669 40 20.832V19.1681C39.9501 10.1331 39.9501 5.60732 37.188 2.81198ZM28.7188 28.7687C28.2712 27.2168 27.3814 25.8287 26.1582 24.7739C24.935 23.7191 23.4312 23.0432 21.8303 22.8286V28.7687H21.3145C12.213 28.7687 7.02163 22.5291 6.80532 12.1298H11.3644C11.5141 19.7504 14.8752 22.9784 17.5374 23.644V12.1298H21.8303V18.7854C24.4592 18.5025 27.2213 15.4576 28.1531 12.213H32.4459C32.0981 13.9272 31.3998 15.5511 30.3948 16.9827C29.3897 18.4144 28.0997 19.6229 26.6056 20.5324C28.2671 21.3594 29.7351 22.528 30.9136 23.9617C32.0921 25.3954 32.9545 27.0618 33.4443 28.8519L28.7188 28.7687Z" fill="#E4002B"/>
</svg>
