<svg width="25" height="25" viewBox="0 0 25 25" fill="none" xmlns="http://www.w3.org/2000/svg">
<path fill-rule="evenodd" clip-rule="evenodd" d="M7 0C3.13401 0 0 3.13401 0 7V18C0 21.866 3.13401 25 7 25H10.0061V16.2901H7V13.1106H10.0061V11.0295C10.0061 7.56086 11.6826 6 14.6309 6C16.0183 6 16.7699 6.11562 17.1167 6.17343V8.9483H15.1512C13.9372 8.9483 13.4747 10.1045 13.4747 11.4341V13.1684H17.0589L16.5964 16.3479H13.4747V25H18C21.866 25 25 21.866 25 18V7C25 3.13401 21.866 0 18 0H7Z" fill="#E4002B"/>
</svg>
