<svg width="25" height="25" viewBox="0 0 25 25" fill="none" xmlns="http://www.w3.org/2000/svg">
<path d="M24.0567 6.25094V17.6913C24.0613 17.7239 24.0613 17.757 24.0567 17.7896C24.0567 18.0746 23.9978 18.3596 23.9488 18.6447C23.7159 19.8374 23.1589 20.9427 22.3391 21.8389C21.2809 23.0317 19.8268 23.7999 18.2462 24.0012L17.7358 24.0602H6.31109H6.21294C5.74052 24.0318 5.2729 23.9493 4.8192 23.8144C3.85042 23.5402 2.9595 23.0419 2.21821 22.3598C1.0277 21.3038 0.260425 19.8509 0.0588908 18.2712L0 17.7601V6.31971C0.00553072 6.28389 0.00553072 6.24744 0 6.21162C0 5.97573 0.0490755 5.73001 0.0883357 5.49412C0.35756 3.99008 1.13775 2.62549 2.29673 1.63153C3.27984 0.765836 4.50118 0.217703 5.8007 0.0589686L6.29146 0H17.7358H17.834C18.1579 0 18.4818 0.0688139 18.8155 0.137613C19.9337 0.375637 20.9696 0.904462 21.8189 1.67086C23.0316 2.72967 23.8111 4.19971 24.0077 5.79881C24.0567 5.91675 24.0567 6.11334 24.0567 6.25094ZM12.0235 18.6545C13.7885 18.6571 15.4827 17.9595 16.7354 16.7143C17.988 15.4692 18.6971 13.7778 18.7075 12.0104C18.7051 10.2496 18.0108 8.56042 16.7748 7.30799C15.5388 6.05556 13.8603 5.34045 12.102 5.31722C11.2181 5.3068 10.3409 5.47232 9.52146 5.80414C8.70197 6.13597 7.95647 6.62747 7.32824 7.25016C6.7 7.87286 6.20155 8.61432 5.86182 9.43149C5.52209 10.2487 5.34785 11.1253 5.34921 12.0104C5.357 13.7769 6.06393 15.4683 7.31503 16.7137C8.56614 17.9592 10.2593 18.6571 12.0235 18.6545ZM21.3772 3.91175C21.3747 3.55711 21.2335 3.21757 20.984 2.96588C20.7345 2.7142 20.3965 2.57038 20.0424 2.56525C19.6891 2.56783 19.3511 2.70947 19.1013 2.95959C18.8515 3.20971 18.7101 3.5482 18.7075 3.90191C18.7062 4.07827 18.7398 4.25315 18.8063 4.41646C18.8728 4.57977 18.9709 4.72828 19.095 4.85345C19.2191 4.97861 19.3667 5.07795 19.5293 5.14574C19.6919 5.21353 19.8662 5.24842 20.0424 5.24841C20.389 5.24611 20.7213 5.1099 20.97 4.86818C21.2187 4.62645 21.3646 4.29788 21.3772 3.95104V3.91175Z" fill="#E30333"/>
<path d="M12.0233 15.9905C10.9671 15.988 9.95448 15.5688 9.20488 14.8236C8.45528 14.0785 8.02913 13.0676 8.0188 12.01C8.0188 10.9465 8.44071 9.92651 9.1917 9.17448C9.9427 8.42246 10.9613 8 12.0233 8C13.0854 8 14.104 8.42246 14.855 9.17448C15.606 9.92651 16.0279 10.9465 16.0279 12.01C16.0176 13.0676 15.5914 14.0785 14.8418 14.8236C14.0922 15.5688 13.0796 15.988 12.0233 15.9905Z" fill="#E30333"/>
</svg>
