<svg width="25" height="25" viewBox="0 0 25 25" fill="none" xmlns="http://www.w3.org/2000/svg">
<path fill-rule="evenodd" clip-rule="evenodd" d="M7.12012 0C3.25412 0 0.120117 3.134 0.120117 6.99999V17.0602C0.120117 20.9261 3.25412 24.0602 7.12011 24.0602H17.1803C21.0463 24.0602 24.1803 20.9262 24.1803 17.0602V7C24.1803 3.13401 21.0463 0 17.1803 0H7.12012ZM15.9769 15.046C15.2852 15.4926 14.5242 15.816 13.7276 16.0021L15.8925 18.226C16.3161 18.6764 16.3161 19.3918 15.8925 19.8429C15.4577 20.3055 14.7392 20.3177 14.2893 19.8717L12.1626 17.6864L10.0252 19.8705C9.80962 20.0976 9.5191 20.2105 9.22857 20.2105C8.93867 20.2105 8.64752 20.0976 8.4326 19.8705L8.41385 19.8512C7.9815 19.3976 7.98963 18.6693 8.43135 18.2234L10.5962 16.0001C9.80025 15.8154 9.03989 15.4913 8.3495 15.0454L8.34825 15.0441C7.81906 14.7015 7.66037 13.9835 7.994 13.44C7.99525 13.4394 7.99525 13.4381 7.99525 13.4368C8.32951 12.8947 9.02802 12.7317 9.55721 13.0743C11.1504 14.0977 13.1747 14.0977 14.7679 13.0743C15.2871 12.7593 15.9544 12.9145 16.2893 13.4291C16.6379 13.9643 16.4979 14.688 15.9769 15.046ZM16.0331 8.78693C16.03 10.9807 14.2993 12.758 12.1626 12.7606V12.7612C10.0264 12.7599 8.29515 10.9826 8.29202 8.78822C8.29202 6.59576 10.0289 4.81203 12.1626 4.81203C14.2962 4.81203 16.0331 6.59576 16.0331 8.78693ZM13.7645 8.78757C13.7639 7.87967 13.0472 7.14307 12.1626 7.14179V7.14115C11.2785 7.14307 10.5612 7.87902 10.56 8.78822C10.5619 9.69676 11.2785 10.4321 12.1626 10.4334C13.0472 10.4321 13.7645 9.69612 13.7645 8.78757Z" fill="#E30333"/>
</svg>
