<svg width="25" height="25" viewBox="0 0 25 25" fill="none" xmlns="http://www.w3.org/2000/svg">
<path fill-rule="evenodd" clip-rule="evenodd" d="M7 0C3.13401 0 0 3.134 0 6.99999V17.0602C0 20.9261 3.134 24.0602 6.99999 24.0602H17.0602C20.9261 24.0602 24.0602 20.9262 24.0602 17.0602V7C24.0602 3.13401 20.9262 0 17.0602 0H7ZM13.5312 4H16.2934C16.2934 6.04058 17.9224 7.71015 20 7.77971V10.516C18.6543 10.4928 17.3794 10.0522 16.3406 9.31013V14.8985C16.3406 17.7044 14.027 20 11.1703 20C8.31366 20 6 17.7276 6 14.8985C6 12.0928 8.26644 9.84347 11.0759 9.79711V12.5333C9.80101 12.5797 8.76223 13.6232 8.76223 14.8985C8.76223 16.1971 9.82462 17.2638 11.1467 17.2638C12.4688 17.2638 13.5312 16.1971 13.5312 14.8985V4Z" fill="#E30333"/>
</svg>
