<svg width="24" height="24" viewBox="0 0 24 24" fill="none" xmlns="http://www.w3.org/2000/svg">
<path d="M22.3128 1.68719C20.6356 2.38022e-06 17.9201 0 12.4992 0H11.5008C6.07986 0 3.36438 2.38022e-06 1.68718 1.68719C0.00997062 3.37438 0 6.07988 0 11.5008V12.4992C0 17.9201 -1.28532e-05 20.6356 1.68718 22.3128C3.37436 23.99 6.07986 24 11.5008 24H12.4992C17.9201 24 20.6356 24 22.3128 22.3128C23.99 20.6256 24 17.9201 24 12.4992V11.5008C23.97 6.07988 23.97 3.36439 22.3128 1.68719ZM17.2313 17.2612C16.9627 16.3301 16.4289 15.4972 15.6949 14.8644C14.961 14.2315 14.0587 13.8259 13.0982 13.6972V17.2612H12.7887C7.32779 17.2612 4.21298 13.5175 4.08319 7.27788H6.81864C6.90849 11.8503 8.92512 13.787 10.5225 14.1864V7.27788H13.0982V11.2712C14.6755 11.1015 16.3328 9.27454 16.8918 7.32778H19.4676C19.2589 8.35633 18.8399 9.33067 18.2369 10.1896C17.6338 11.0486 16.8598 11.7737 15.9634 12.3195C16.9603 12.8157 17.8411 13.5168 18.5482 14.377C19.2553 15.2372 19.7727 16.2371 20.0666 17.3111L17.2313 17.2612Z" fill="#E30333"/>
</svg>
