<svg width="69" height="56" viewBox="0 0 69 56" fill="none" xmlns="http://www.w3.org/2000/svg">
<path d="M67.0603 1.75962C66.9323 1.43561 66.6373 1.20762 66.2914 1.16532C65.9465 1.12317 65.6046 1.27337 65.4023 1.55698C64.2011 3.24103 62.625 3.80237 60.7991 4.45245C59.3269 4.97688 57.8045 5.51874 56.1591 6.70006C53.8321 8.37064 52.7677 10.6479 53.2985 12.8063L53.2418 12.879C52.2701 11.4694 51.2128 10.1656 50.0971 9.00139C44.877 3.55458 37.5829 0.279962 30.0845 0.0174284C29.7542 0.00586233 29.4184 0 29.0867 0C20.7138 0 12.6996 3.74296 7.09931 10.2689C1.52828 16.7611 -0.940991 25.2124 0.324935 33.4558C0.430772 34.1448 0.563227 34.841 0.718973 35.5255C2.77804 44.5885 8.03711 51.483 15.1478 54.4404C16.9007 55.1695 18.6687 55.539 20.4022 55.539C24.709 55.539 28.4708 53.2355 30.7233 49.219C31.5795 47.6907 32.132 46.1103 32.3648 44.5212C32.502 43.5832 32.4082 42.646 32.3172 41.7379C32.2236 40.8031 32.1352 39.9196 32.2767 39.0301C32.601 36.9912 34.0252 35.7738 36.0866 35.7738C36.673 35.7738 37.2722 35.8702 37.8707 36.0608C37.1701 37.3458 36.5338 38.5727 35.9778 39.71C34.7995 42.1202 33.9867 44.1162 33.5613 45.642C33.2991 46.5829 32.6024 49.0836 34.3012 50.2627C34.8407 50.6371 35.5247 50.7692 36.2365 50.6367C36.8781 50.5176 38.83 50.1549 44.3768 43.8403C45.8655 42.1458 47.4697 40.1849 49.1464 38.0108C53.4509 36.561 56.8006 32.9532 57.6868 28.8075C57.9086 27.7712 58.0011 26.6621 57.9617 25.5101C59.5733 23.0194 60.9869 20.6954 62.4094 18.1972C62.4366 18.149 62.4635 18.0977 62.4902 18.0451C64.5548 17.4796 66.3329 15.8729 67.3767 13.6261C68.9006 10.3468 68.7883 6.13238 67.0603 1.75962ZM43.7901 17.2874C43.0434 18.4733 41.7599 19.1814 40.3563 19.1814C39.5942 19.1814 38.8487 18.9658 38.2007 18.5576C37.2846 17.9806 36.6475 17.0815 36.4078 16.0258C36.1681 14.9701 36.3531 13.884 36.9303 12.9677C37.6772 11.7818 38.9609 11.0738 40.3645 11.0738C41.1267 11.0738 41.872 11.2894 42.5199 11.6977C43.436 12.2744 44.0729 13.1736 44.3128 14.2294C44.5525 15.2852 44.367 16.3712 43.7901 17.2874ZM49.0514 24.6315C51.1006 21.6122 53.2678 18.6109 55.3262 15.9412C55.6599 16.2425 56.033 16.5369 56.4372 16.8173C57.1069 17.282 57.8073 17.6414 58.5229 17.8874C56.7849 20.8594 54.9163 23.8039 52.6538 27.1363C48.9364 32.6137 45.0711 37.7016 41.7698 41.463C39.9259 43.5639 38.3122 45.186 37.0688 46.1906C37.5487 44.6554 38.4659 42.5483 39.7425 40.0518C42.0251 35.5874 45.3311 30.1111 49.0514 24.6315ZM13.0721 24.6056C12.3099 24.6056 11.5644 24.3899 10.9163 23.9816C10.0002 23.4047 9.3634 22.5059 9.12352 21.4499C8.88364 20.3941 9.06933 19.308 9.64653 18.3917C10.3929 17.206 11.6766 16.4979 13.0801 16.4979C13.8425 16.4979 14.5879 16.7136 15.2359 17.1219C17.1271 18.313 17.6968 20.8206 16.5065 22.7114C15.7593 23.8975 14.4754 24.6056 13.0721 24.6056ZM8.82312 33.5312C9.56984 32.3451 10.8534 31.6371 12.257 31.6371C13.0191 31.6371 13.7644 31.8529 14.4127 32.261C15.3288 32.8379 15.9655 33.7369 16.2054 34.7927C16.4455 35.8482 16.2598 36.9342 15.6824 37.8507C14.936 39.0363 13.6523 39.7445 12.2489 39.7445C11.4866 39.7445 10.741 39.5289 10.0927 39.1206C9.1766 38.5436 8.53999 37.6448 8.30027 36.5889C8.06071 35.5334 8.24656 34.4473 8.82312 33.5312ZM21.8043 9.45737C22.5511 8.27146 23.8347 7.5634 25.2382 7.5634C26.0001 7.5634 26.7456 7.77903 27.3936 8.18717C29.2849 9.378 29.8546 11.8858 28.6641 13.7769C27.9171 14.963 26.6334 15.671 25.2299 15.671C24.4678 15.671 23.7224 15.4554 23.0744 15.0471C22.1584 14.4704 21.5218 13.5714 21.282 12.5154C21.0418 11.4597 21.2275 10.3738 21.8043 9.45737Z" fill="#E4002B"/>
</svg>
