<svg width="66" height="71" viewBox="0 0 66 71" fill="none" xmlns="http://www.w3.org/2000/svg">
<path d="M30.9268 17.291C34.0777 17.2091 36.5656 14.5884 36.4837 11.4374C36.4018 8.28647 33.781 5.79855 30.6301 5.88047C27.4791 5.9624 24.9912 8.58315 25.0731 11.7341C25.1551 14.885 27.7758 17.373 30.9268 17.291Z" fill="#E4002B"/>
<path d="M50.9805 25.0109L57.7726 16.3608C58.7118 15.1651 58.5028 13.4343 57.3076 12.4956C56.1115 11.5559 54.3767 11.7707 53.4426 12.9606L53.4425 12.9607C52.7319 13.8655 48.2746 19.5422 47.5617 20.45L39.2909 19.1935C38.3809 19.0553 37.4616 18.9858 36.5411 18.9858H28.159L19.4036 12.7939L16.3285 2.05699C15.9173 0.62194 14.4514 -0.280674 13.0028 0.079189C11.4818 0.456791 10.5895 2.01574 11.0173 3.50937L14.3772 15.2405C14.5498 15.8428 14.9226 16.3682 15.4341 16.73L23.5289 22.4548C23.5164 22.5814 23.5096 22.7099 23.5096 22.8398V41.3406L19.617 51.2988C19.5135 51.5637 19.4447 51.8406 19.4121 52.123L17.7361 66.6575C17.5271 68.4699 18.8269 70.1086 20.6394 70.3175C22.4519 70.5263 24.0903 69.2268 24.2993 67.4143L25.9264 53.3052L30.1055 42.6138H31.5902L38.1528 67.8668C38.6123 69.6353 40.4177 70.6914 42.1807 70.2331C43.9465 69.7742 45.006 67.9708 44.5471 66.205L38.0907 41.3606V24.6756L48.5976 26.0551C49.4939 26.1261 50.362 25.7712 50.9805 25.0109Z" fill="#E4002B"/>
<path d="M43.2789 12.1639C44.1663 12.1639 45.287 11.7082 45.1273 10.9258V5.03558L49.5524 3.48681V8.23378C48.6723 8.1631 47.436 8.52888 47.436 9.32685C47.436 9.93684 48.2702 10.4313 49.2994 10.4313C50.3285 10.4313 51.1628 9.93684 51.1628 9.32685C51.1764 9.32685 51.2048 9.32685 51.1911 9.32685V2.48024C51.1911 1.84329 50.5623 1.39721 49.9611 1.6076L44.1456 3.64302C43.7521 3.78081 43.4886 4.15208 43.4886 4.56901V9.96242C42.6264 9.9048 41.4155 10.2718 41.4155 11.0595C41.4157 11.6695 42.2498 12.1639 43.2789 12.1639Z" fill="#E4002B"/>
<path d="M61.4228 23.3635L57.494 24.7386V30.8281C56.6319 30.7706 55.4209 31.1375 55.4209 31.9252C55.4209 32.5351 56.2552 33.0296 57.2843 33.0296C58.1716 33.0296 59.2923 32.5741 59.1327 31.7915V25.9013L60.4176 25.4516C61.2717 25.1525 61.7217 24.2176 61.4228 23.3635Z" fill="#E4002B"/>
<path d="M7.43792 13.0786L3.50913 14.4537V20.5431C2.64695 20.486 1.43604 20.8524 1.43604 21.6401C1.43604 22.2501 2.27031 22.7446 3.29943 22.7446C4.18678 22.7446 5.30735 22.289 5.14784 21.5064V15.6162L6.43259 15.1666C7.28666 14.8676 7.73687 13.9328 7.43792 13.0786Z" fill="#E4002B"/>
<path d="M57.9677 5.06323C58.4665 5.33509 58.8769 5.74556 59.1489 6.24444C59.2542 6.43764 59.5333 6.43764 59.6387 6.24444C59.9105 5.74569 60.321 5.33523 60.8199 5.06323C61.0131 4.9579 61.0131 4.67876 60.8199 4.57342C60.321 4.30157 59.9105 3.8911 59.6387 3.39222C59.5333 3.19901 59.2542 3.19901 59.1489 3.39222C58.8769 3.89096 58.4665 4.30143 57.9677 4.57342C57.7745 4.67862 57.7745 4.95776 57.9677 5.06323Z" fill="#E4002B"/>
<path d="M1.81592 12.794C2.08778 12.2953 2.49824 11.8848 2.99713 11.6128C3.19033 11.5075 3.19033 11.2283 2.99713 11.123C2.49824 10.8511 2.08778 10.4407 1.81592 9.94178C1.71059 9.74857 1.43144 9.74857 1.32611 9.94178C1.05425 10.4405 0.643786 10.851 0.144901 11.123C-0.0483003 11.2283 -0.0483003 11.5075 0.144901 11.6128C0.643786 11.8846 1.05425 12.2951 1.32611 12.794C1.43144 12.9873 1.71059 12.9873 1.81592 12.794Z" fill="#E4002B"/>
<path d="M64.0672 11.0651C63.6766 10.8522 63.3552 10.5307 63.1422 10.1401C63.0597 9.9888 62.8411 9.9888 62.7587 10.1401C62.5458 10.5307 62.2243 10.8522 61.8337 11.0651C61.6824 11.1476 61.6824 11.3662 61.8337 11.4487C62.2243 11.6617 62.5458 11.9831 62.7587 12.3738C62.8412 12.525 63.0598 12.525 63.1422 12.3738C63.3552 11.9831 63.6766 11.6617 64.0672 11.4487C64.2185 11.3662 64.2185 11.1476 64.0672 11.0651Z" fill="#E4002B"/>
<path d="M9.17417 7.69985C8.7835 7.48699 8.462 7.16549 8.24914 6.77482C8.16663 6.62356 7.94799 6.62356 7.86562 6.77482C7.65262 7.16549 7.33126 7.48699 6.94059 7.69985C6.78933 7.78236 6.78933 8.001 6.94059 8.0835C7.33126 8.2965 7.65262 8.61787 7.86562 9.00853C7.94813 9.15979 8.16677 9.15979 8.24914 9.00853C8.46214 8.61787 8.7835 8.2965 9.17417 8.0835C9.32543 8.00086 9.32543 7.78222 9.17417 7.69985Z" fill="#E4002B"/>
<path d="M65.9191 5.72344C65.6407 5.57177 65.4118 5.34282 65.2601 5.0645C65.2014 4.95669 65.0456 4.95669 64.9869 5.0645C64.8352 5.34268 64.6062 5.57177 64.3279 5.72344C64.2201 5.78216 64.2201 5.93796 64.3279 5.99668C64.6062 6.14835 64.8352 6.3773 64.9869 6.65562C65.0456 6.76343 65.2014 6.76343 65.2601 6.65562C65.4118 6.37744 65.6407 6.14835 65.9191 5.99668C66.0267 5.93796 66.0267 5.7823 65.9191 5.72344Z" fill="#E4002B"/>
<path d="M1.72577 5.8375C2.00409 5.98917 2.23305 6.21812 2.38472 6.49644C2.44344 6.60425 2.59923 6.60425 2.65795 6.49644C2.80962 6.21826 3.03858 5.98917 3.3169 5.8375C3.4247 5.77878 3.4247 5.62298 3.3169 5.56427C3.03858 5.41259 2.80962 5.18364 2.65795 4.90532C2.59923 4.79751 2.44344 4.79751 2.38472 4.90532C2.23305 5.1835 2.00409 5.41259 1.72577 5.56427C1.6181 5.62298 1.6181 5.77864 1.72577 5.8375Z" fill="#E4002B"/>
</svg>
