<svg width="68" height="60" viewBox="0 0 68 60" fill="none" xmlns="http://www.w3.org/2000/svg">
<path d="M51.4935 33.4625C51.4935 32.3746 50.6131 31.4941 49.5251 31.4941C48.4372 31.4941 47.5568 32.3746 47.5568 33.4625C47.5568 41.0593 41.1123 47.2412 33.5156 47.2412C25.9188 47.2412 19.4744 41.0593 19.4744 33.4625C19.4744 32.3746 18.5939 31.4941 17.506 31.4941C16.418 31.4941 15.5376 32.3746 15.5376 33.4625C15.5376 42.5574 22.7137 49.9853 31.5472 50.9791V55.1149H25.3795C24.2916 55.1149 23.4111 55.9953 23.4111 57.0833C23.4111 58.1712 24.2916 59.0517 25.3795 59.0517H41.6516C42.7395 59.0517 43.62 58.1712 43.62 57.0833C43.62 55.9953 42.7395 55.1149 41.6516 55.1149H35.4839V50.9791C44.3174 49.9853 51.4935 42.5576 51.4935 33.4625Z" fill="#E4002B"/>
<path d="M33.5156 0C28.0889 0 23.4111 4.41541 23.4111 9.84193V33.4625C23.4111 38.8892 28.089 43.3045 33.5156 43.3045C38.9422 43.3045 43.62 38.8891 43.62 33.4625V9.84206C43.6198 4.41541 38.9421 0 33.5156 0Z" fill="#E4002B"/>
<path d="M60.6877 2.98365C59.9188 2.21476 58.6731 2.21476 57.9042 2.98365C57.1353 3.75255 57.1353 4.99825 57.9042 5.76715C61.2509 9.11177 63.0943 13.56 63.0943 18.2925C63.0943 23.025 61.2508 27.4752 57.9042 30.8199C57.1353 31.5888 57.1353 32.8345 57.9042 33.6034C58.6731 34.3723 59.9187 34.3723 60.6877 33.6034C64.7783 29.5146 67.0312 24.0784 67.0312 18.2924C67.0312 12.5084 64.7783 7.07216 60.6877 2.98365Z" fill="#E4002B"/>
<path d="M55.117 8.55397C54.3481 7.78507 53.1024 7.78507 52.3337 8.55397C51.5648 9.32286 51.5648 10.5704 52.3337 11.3375C54.1963 13.1982 55.2208 15.6683 55.2208 18.2922C55.2208 20.9161 54.1963 23.3862 52.3337 25.2489C51.5646 26.0179 51.5646 27.2635 52.3337 28.0324C53.1026 28.8013 54.3483 28.8013 55.117 28.0324C57.7235 25.4277 59.1576 21.9677 59.1576 18.2923C59.1576 14.6149 57.7217 11.1567 55.117 8.55397Z" fill="#E4002B"/>
<path d="M49.552 14.1192C48.7831 13.3503 47.5374 13.3503 46.7685 14.1192C45.9996 14.888 45.9996 16.1338 46.7685 16.9026C47.1415 17.2756 47.347 17.7695 47.347 18.2925C47.347 18.8172 47.1414 19.3113 46.7685 19.6842C45.9996 20.4532 45.9996 21.6988 46.7685 22.4677C47.5374 23.2366 48.7831 23.2366 49.552 22.4677C50.6689 21.3508 51.2839 19.8688 51.2839 18.2926C51.2839 16.718 50.6687 15.236 49.552 14.1192Z" fill="#E4002B"/>
<path d="M3.93677 18.2923C3.93677 13.5598 5.78026 9.11165 9.12684 5.7669C9.89573 4.99801 9.89573 3.7523 9.12684 2.98341C8.35794 2.21451 7.11224 2.21451 6.34334 2.98341C2.25287 7.07205 0 12.5082 0 18.2923C0 24.0783 2.25287 29.5144 6.34348 33.6032C7.11237 34.3721 8.35808 34.3721 9.12697 33.6032C9.89586 32.8343 9.89586 31.5886 9.12697 30.8197C5.78026 27.4748 3.93677 23.0248 3.93677 18.2923Z" fill="#E4002B"/>
<path d="M11.8103 18.2922C11.8103 15.6683 12.8349 13.1982 14.6975 11.3375C15.4664 10.5704 15.4664 9.32286 14.6975 8.55397C13.9286 7.78507 12.6829 7.78507 11.914 8.55397C9.30935 11.1567 7.87341 14.6148 7.87341 18.2921C7.87341 21.9674 9.30738 25.4275 11.914 28.0321C12.6829 28.801 13.9286 28.801 14.6975 28.0321C15.4664 27.2633 15.4664 26.0175 14.6975 25.2488C12.8349 23.3862 11.8103 20.9161 11.8103 18.2922Z" fill="#E4002B"/>
<path d="M19.6839 18.2923C19.6839 17.7695 19.8895 17.2754 20.2624 16.9024C21.0314 16.1335 21.0314 14.8878 20.2624 14.1189C19.4935 13.35 18.2478 13.35 17.4789 14.1189C16.3621 15.2358 15.7469 16.7178 15.7469 18.2921C15.7469 19.8684 16.3621 21.3504 17.4789 22.4672C18.2478 23.2361 19.4935 23.2361 20.2624 22.4672C21.0313 21.6983 21.0313 20.4526 20.2624 19.6837C19.8895 19.3109 19.6839 18.817 19.6839 18.2923Z" fill="#E4002B"/>
</svg>
