<svg width="26" height="30" viewBox="0 0 26 30" fill="none" xmlns="http://www.w3.org/2000/svg">
<path d="M4.53335 15.0833C4.53335 9.5789 8.99558 5.11667 14.5 5.11667C20.0045 5.11667 24.4667 9.5789 24.4667 15.0833C24.4667 20.5878 20.0045 25.05 14.5 25.05C8.99558 25.05 4.53335 20.5878 4.53335 15.0833Z" fill="#E4002B" stroke="#E4002B" stroke-width="0.6"/>
<path d="M3.53915 23.6275C5.22903 25.3174 7.38208 26.4683 9.72601 26.9345C12.0699 27.4007 14.4995 27.1614 16.7074 26.2469C18.9154 25.3323 20.8025 23.7836 22.1303 21.7965C23.458 19.8094 24.1667 17.4732 24.1667 15.0833C24.1667 12.6935 23.458 10.3573 22.1303 8.37019C20.8025 6.3831 18.9154 4.83435 16.7074 3.91979C14.4995 3.00523 12.07 2.76594 9.72601 3.23218C7.38208 3.69842 5.22903 4.84924 3.53915 6.53913" stroke="black" stroke-width="2"/>
<path d="M9.69141 17.8604C9.69141 17.3682 9.80273 16.9229 10.0254 16.5244C10.248 16.1201 10.5176 15.7891 10.834 15.5312C11.1504 15.2734 11.4668 15.0186 11.7832 14.7666C12.1055 14.5146 12.375 14.2275 12.5918 13.9053C12.8145 13.5771 12.9258 13.2168 12.9258 12.8242C12.9258 12.3203 12.7324 11.8955 12.3457 11.5498C11.9648 11.1982 11.4697 11.0225 10.8604 11.0225C10.4736 11.0225 10.1221 11.0869 9.80566 11.2158C9.48926 11.3389 9.24316 11.4883 9.06738 11.6641C8.8916 11.834 8.74805 12.0068 8.63672 12.1826C8.52539 12.3584 8.44922 12.5107 8.4082 12.6396L8.33789 12.8242L6.7207 12.1914C6.74414 12.1094 6.77637 12.001 6.81738 11.8662C6.8584 11.7314 6.98438 11.4941 7.19531 11.1543C7.40625 10.8145 7.64941 10.5156 7.9248 10.2578C8.2002 10 8.59863 9.7627 9.12012 9.5459C9.6416 9.3291 10.2217 9.2207 10.8604 9.2207C12.0381 9.2207 13.0078 9.55762 13.7695 10.2314C14.5312 10.8994 14.9121 11.7021 14.9121 12.6396C14.9121 13.3018 14.792 13.8701 14.5518 14.3447C14.3115 14.8135 14.0186 15.1885 13.6729 15.4697C13.333 15.7451 12.9873 16.0059 12.6357 16.252C12.29 16.498 11.9971 16.8086 11.7568 17.1836C11.5166 17.5527 11.3965 17.9893 11.3965 18.4932V18.6689H9.7793C9.7207 18.3701 9.69141 18.1006 9.69141 17.8604ZM9.77051 21.833C9.53613 21.5986 9.41895 21.3262 9.41895 21.0156C9.41895 20.6992 9.53613 20.4238 9.77051 20.1895C10.0049 19.9551 10.2773 19.8379 10.5879 19.8379C10.8984 19.8379 11.1709 19.9551 11.4053 20.1895C11.6396 20.4238 11.7568 20.6992 11.7568 21.0156C11.7568 21.3262 11.6396 21.5986 11.4053 21.833C11.1709 22.0615 10.8984 22.1758 10.5879 22.1758C10.2773 22.1758 10.0049 22.0615 9.77051 21.833Z" fill="black"/>
</svg>
